<?xml version="1.0" encoding="utf-8" ?><svg xmlns="http://www.w3.org/2000/svg" xmlns:xlink="http://www.w3.org/1999/xlink" width="1733" height="1733" viewBox="0 0 1733 1733"><path fill="white" d="M382.5 1534.53C376.353 1531.11 359.493 1517.18 353.681 1512.41C302.625 1470.46 256.795 1422.53 217.176 1369.65C88.3217 1198.59 32.8441 983.28 62.9894 771.251C94.1757 556.246 209.866 362.573 384.397 233.194C542.964 114.251 739.752 57.8089 937.257 74.6247C963.575 76.8093 989.762 80.3653 1015.71 85.2784C1030.27 88.172 1053.04 94.1731 1066.87 96.0994L1067.71 96.2102C1070.71 95.8606 1073.68 96.1341 1076.29 95.8635C1087.37 94.7114 1092.58 90.052 1098.66 101.816C1102.2 103.761 1104.98 104.984 1107.86 107.83L1108.83 108.279C1120.9 113.743 1140.97 119.579 1154.31 124.535C1181.88 134.775 1208.79 146.685 1234.91 160.198C1414.81 252.585 1554.49 407.847 1627.41 596.474C1704.49 795.648 1698.62 1017.39 1611.11 1212.21C1521.97 1411.51 1357.54 1567.41 1153.77 1645.81C955.665 1721.51 735.612 1715.46 541.968 1628.99C505.31 1612.62 455.431 1585.85 422.089 1563.26C413.236 1557.72 389.747 1541.57 382.5 1534.53Z"/><path fill="#7BA970" d="M1067.71 96.2102C1070.71 95.8606 1073.68 96.1341 1076.29 95.8635C1087.37 94.7114 1092.58 90.052 1098.66 101.816C1102.2 103.761 1104.98 104.984 1107.86 107.83C1099.53 106.848 1076.1 99.2686 1067.71 96.2102Z"/><path fill="#AFA67D" d="M382.5 1534.53C392.875 1536.23 386.537 1540.14 398.58 1537.31C401.356 1538.22 400.346 1537.4 401.884 1539.63C401.839 1542.79 401.091 1545.19 403.662 1547.31C412.854 1554.91 416.501 1552.12 422.089 1563.26C413.236 1557.72 389.747 1541.57 382.5 1534.53Z"/><path d="M838.688 300.884C891.748 295.891 978.445 307.809 1029.27 324.879C1115.49 353.838 1202.87 418.18 1244.06 501.392C1267.33 548.389 1292.59 640.251 1278.23 693.408C1273.97 709.203 1254.72 727.537 1239.32 734.845C1223.33 742.482 1204.96 743.485 1188.23 737.635C1147.53 722.951 1151.07 690.118 1144.61 655.697C1129.28 573.989 1058.71 519.367 983.829 493.367C842.765 444.387 646.421 486.82 591.883 641.589C575.514 688.264 578.119 754.918 599.539 799.737C635.859 872.233 721.283 908.593 793.912 933.323C797.824 919.926 809.015 890.63 802.66 877.55C799.004 870.024 786.205 858.832 779.952 851.934C775.502 847.025 771.488 841.738 767.956 836.133C751.286 809.669 745.832 777.66 752.797 747.17C759.892 716.092 779.087 689.126 806.13 672.248C832.978 655.477 865.462 650.257 896.213 657.774C923.804 664.366 947.974 680.948 964.056 704.318C969.425 712.142 974.167 721.894 979.316 730.261C1039.12 746.579 1117.95 784.01 1165.47 823.391C1258.31 900.318 1313.96 983.904 1325.99 1104.92C1335.74 1202.27 1306.74 1299.55 1245.28 1375.67C1187.89 1445.7 1098.04 1495.8 1011.42 1519.48C979.161 1528.3 945.619 1533.24 912.405 1536.54C830.576 1542.73 748.404 1530.43 671.976 1500.54C562.658 1457.03 476.493 1376.42 429.666 1267.93C409.989 1221.46 400.284 1173.02 419.545 1124.12C435.422 1083.81 485.696 1029.76 534.626 1049C563.215 1060.24 570.956 1085.33 574.592 1112.96C576.022 1123.82 581.402 1138.15 585.354 1148.53C608.76 1206.45 658.837 1247.27 715.977 1270.43C808.513 1307.92 929.344 1307.76 1021.8 1269.99C1075.14 1248.2 1125.04 1209.2 1146.86 1154.71C1168.17 1101.49 1168.27 1039.73 1145.73 986.811C1112.57 908.949 1034.6 876.836 961.69 847.403C951.657 856.805 939.416 867.441 932.017 878.722C930.777 897.686 938.862 923.343 943.849 942.264C951.078 970.421 958.47 998.536 966.026 1026.61C970.751 1044.18 976.854 1062.38 979.677 1080.34C980.525 1085.73 980.813 1091.33 979.596 1096.69C978.118 1103.19 974.378 1108.61 968.533 1111.91C964.98 1113.92 961.191 1114.69 957.155 1115.01C936.649 1116.64 915.088 1115.34 894.433 1115.44C872 1115.54 787.736 1118.58 772.476 1113.8C766.123 1111.81 761.052 1107.62 758.124 1101.61C750.491 1085.96 760.08 1063.62 765.063 1048.34C700.087 1034.05 621.967 992.056 571.071 949.255C495.879 886.022 463.228 774.642 455.274 680.05C447.927 592.679 471.874 502.924 530.498 436.074C608.719 346.878 723.336 309.089 838.688 300.884Z"/></svg>